<?xml version="1.0" encoding="UTF-8"?><svg id="Ebene_1" xmlns="http://www.w3.org/2000/svg" viewBox="0 0 105.3 53.2"><defs><style>.cls-1{fill:#3c3c3b;}.cls-1,.cls-2{stroke-width:0px;}.cls-2{fill:#98221f;}</style></defs><path class="cls-2" d="M50.6,12.2C45.7,5.1,38.7,0,27.9,0,10.3,0,0,13.3,0,26.6s10.2,26.6,27.9,26.6c9.6,0,18.2-5.1,22.7-12.2l-9.5-5.6c-2.9,4.6-7.2,7.6-13.2,7.6-9.5,0-16.4-7.3-16.4-16.4s6.9-16.4,16.4-16.4c6.2,0,10.2,3.1,13.2,7.6l9.5-5.6h0Z"/><path class="cls-1" d="M54.7,12.2c4.9-7.1,11.9-12.2,22.7-12.2,17.6,0,27.9,13.3,27.9,26.6s-10.2,26.6-27.9,26.6c-9.6,0-18.2-5.1-22.7-12.2l9.5-5.6c2.9,4.6,7.2,7.6,13.2,7.6,9.5,0,16.4-7.3,16.4-16.4s-6.9-16.4-16.4-16.4c-6.2,0-10.2,3.1-13.2,7.6l-9.5-5.6h0Z"/></svg>