<?xml version="1.0" encoding="utf-8"?>
<!-- Generator: Adobe Illustrator 28.1.0, SVG Export Plug-In . SVG Version: 6.00 Build 0)  -->
<svg version="1.1" id="Ebene_1" xmlns="http://www.w3.org/2000/svg" xmlns:xlink="http://www.w3.org/1999/xlink" x="0px" y="0px"
	 viewBox="0 0 280.7 53.2" style="enable-background:new 0 0 280.7 53.2;" xml:space="preserve">
<style type="text/css">
	.st0{fill:#9C9B9B;}
	.st1{fill:#98221F;}
	.st2{fill:#3C3C3B;}
</style>
<path class="st0" d="M219,39.5h9.1V18.3c0-6.1,4.5-9.5,10.4-9.5c5.8,0,10,2.8,10,9.7v21h9.1V16.7c0-9.4-7.5-16-16.4-16
	c-5.8,0-10.4,2.2-12.9,5.8h-0.2V1.6H219L219,39.5L219,39.5L219,39.5z"/>
<path class="st1" d="M167.1,9.8c-4.1-5.3-9.9-9.1-19-9.1c-14.7,0-23.3,10-23.3,19.9s8.5,19.9,23.3,19.9c8,0,15.2-3.8,19-9.1
	l-7.9-4.2c-2.4,3.4-6,5.7-11,5.7c-7.9,0-13.7-5.5-13.7-12.3s5.8-12.3,13.7-12.3c5.2,0,8.5,2.3,11,5.7L167.1,9.8
	C167.1,9.8,167.1,9.8,167.1,9.8z"/>
<path class="st0" d="M32.1,1.6h-9v50.9h9.1V34.9h0.2c2.3,3.2,7.2,5.6,13.5,5.6c13.7,0,22.3-10.6,22.3-19.9s-8-19.9-21.9-19.9
	c-5.8,0-10.6,2-13.9,5.6h-0.2L32.1,1.6L32.1,1.6z M58.5,20.6c0,6.8-6.1,12.3-13.5,12.3s-13.3-5.5-13.3-12.3S37.9,8.3,45.1,8.3
	C52.3,8.3,58.5,13.8,58.5,20.6L58.5,20.6z M108.4,39.5h9.1V1.6h-9.1v4.6h-0.2C105.9,3,101,0.7,94.8,0.7c-13.7,0-22.3,10.6-22.3,19.9
	s8,19.9,21.9,19.9c5.8,0,11-2.2,13.9-5.6h0.2V39.5L108.4,39.5z M82,20.6c0-6.8,6.1-12.3,13.5-12.3s13.3,5.5,13.3,12.3
	s-6.1,12.3-13.3,12.3S82,27.4,82,20.6L82,20.6z"/>
<path class="st2" d="M170.6,9.8c4.1-5.3,9.9-9.1,19-9.1c14.7,0,23.3,10,23.3,19.9s-8.5,19.9-23.3,19.9c-8,0-15.2-3.8-19-9.1l7.9-4.2
	c2.4,3.4,6,5.7,11,5.7c7.9,0,13.7-5.5,13.7-12.3s-5.8-12.3-13.7-12.3c-5.2,0-8.5,2.3-11,5.7L170.6,9.8L170.6,9.8L170.6,9.8z"/>
</svg>
