<?xml version="1.0" encoding="utf-8"?>
<!-- Generator: Adobe Illustrator 19.2.1, SVG Export Plug-In . SVG Version: 6.00 Build 0)  -->
<svg version="1.1" id="Ebene_1" xmlns="http://www.w3.org/2000/svg" xmlns:xlink="http://www.w3.org/1999/xlink" x="0px" y="0px"
	 viewBox="0 0 283.5 96.4" style="enable-background:new 0 0 283.5 96.4;" xml:space="preserve">
<style type="text/css">
	.st0{fill:#1D1D1B;}
	.st1{fill:#9C9B9B;}
	.st2{fill:#98221F;}
	.st3{fill:#3C3C3B;}
</style>
<g>
	<path class="st0" d="M3.1,92.3c0,2.5,0,2.8-1.4,3l-0.6,0.1c-0.1,0.2-0.1,0.5,0,0.6c1.1,0,2-0.1,3-0.1c1,0,1.8,0,2.9,0.1
		c0.1-0.1,0.2-0.5,0-0.6l-0.5-0.1c-1.4-0.2-1.4-0.5-1.4-3v-3c0-0.5,0-0.5,1.1-0.5c1,0,1.3,0.2,1.7,0.8c0.7,1.1,1.7,2.7,2.4,3.6
		c1.7,2.4,2.9,3,5,3c0.5,0,0.8,0,1.1-0.1c0.1-0.1,0.1-0.3,0-0.3c-0.7,0-1.3-0.3-1.7-0.7c-1.6-1.4-2.9-3.3-4.8-6.4
		c-0.1-0.2-0.2-0.4-0.1-0.6c1.2-0.5,3-1.7,3-4c0-1.7-0.8-2.8-2-3.4c-1.1-0.6-2.5-0.7-4-0.7c-2.4,0-4,0.1-5.4,0.2
		c-0.2,0.1-0.2,0.5,0,0.6l0.8,0.1c1,0.1,1.1,0.5,1.1,2.8V92.3L3.1,92.3z M5.1,81.4c0-0.7,0.1-0.8,1.6-0.8c2.7,0,3.9,1.8,3.9,3.7
		c0,1.6-0.6,2.5-1.2,3C8.6,87.9,7.7,88,6.8,88c-1.2,0-1.6,0-1.7-0.1c-0.1-0.1-0.1-0.4-0.1-0.8V81.4L5.1,81.4z M22.5,92.3
		c0,2.5-0.1,2.9-1.5,3l-0.8,0.1c-0.1,0.1-0.1,0.5,0,0.6c1.4,0,2.2-0.1,3.3-0.1h2.2c2.1,0,4.3,0,6.5,0.1c0.3-0.7,0.9-2.5,1.1-3.4
		c-0.1-0.2-0.4-0.3-0.6-0.2c-0.6,1.3-1.3,2.1-1.7,2.3c-0.5,0.3-1.2,0.4-3.1,0.4c-2.1,0-2.6-0.3-2.9-0.6c-0.4-0.4-0.5-1.2-0.5-2.5
		v-3.4c0-0.6,0.1-0.6,0.8-0.6h1.4c0.9,0,1.5,0,1.9,0.1c0.5,0.1,0.7,0.5,0.7,0.9l0.2,0.9c0.1,0.1,0.5,0.1,0.6,0
		c0-0.5-0.1-1.4-0.1-2.3c0-0.9,0.1-1.9,0.1-2.4c-0.1-0.2-0.5-0.2-0.6,0l-0.2,1c-0.1,0.6-0.3,0.7-0.6,0.8c-0.3,0.1-1,0.1-2,0.1h-1.4
		c-0.7,0-0.8,0-0.8-0.7v-4.8c0-0.9,0-1,0.7-1H27c1.1,0,1.8,0,2.3,0.1c1.3,0.3,1.5,1.2,1.8,2.3c0.1,0.1,0.5,0.1,0.6,0
		c-0.1-1.1-0.2-2.8-0.4-3.2C31.1,80,29.6,80,28.1,80h-4.5c-1,0-1.8,0-2.8-0.1c-0.1,0.1-0.2,0.5,0,0.6l0.4,0c1.4,0.2,1.5,0.5,1.5,3
		V92.3L22.5,92.3z M48.3,93.6c0.2,0.6,0.3,1,0.3,1.3c0,0.2-0.3,0.4-0.8,0.4L47,95.4c-0.2,0.1-0.1,0.5,0,0.6c0.7,0,1.6-0.1,2.8-0.1
		c1.1,0,1.9,0,2.9,0.1c0.1-0.1,0.2-0.5,0-0.6l-0.7-0.1c-1-0.1-1.3-0.5-2-2.6l-3.3-9.7c-0.4-1.1-0.7-2.2-1.1-3.2
		c0-0.2-0.2-0.2-0.4-0.2c-0.3,0.3-0.7,0.7-1.3,0.9c0.1,0.4-0.1,0.8-0.4,1.7l-2.5,6.5c-1,2.7-1.7,4.3-2.1,5.4
		c-0.3,0.9-0.9,1.1-1.4,1.2l-0.8,0.1c-0.1,0.1-0.1,0.5,0,0.6c0.7,0,1.5-0.1,2.3-0.1c1.1,0,1.9,0,2.5,0.1c0.2-0.1,0.2-0.5,0-0.6
		L41,95.3c-0.6,0-0.7-0.2-0.7-0.5c0-0.3,0.2-0.9,0.5-2l0.8-2.5c0.2-0.5,0.3-0.6,0.9-0.6h3.6c0.7,0,0.8,0.1,1,0.6L48.3,93.6
		L48.3,93.6z M43.9,84c0.3-0.7,0.5-1.3,0.6-1.4h0c0.1,0.3,0.4,0.9,0.6,1.5l1.3,3.9c0.2,0.7,0.2,0.7-0.5,0.7h-3c-0.7,0-0.7,0-0.5-0.6
		L43.9,84L43.9,84z M59.3,92.3c0,2.5,0,2.9-1.4,3l-0.7,0.1c-0.1,0.1-0.1,0.5,0,0.6c1.3,0,2.1-0.1,3.1-0.1h2.2c2.5,0,4.8,0,6,0.1
		c0.3-0.7,1-3.1,1-3.4c0-0.2-0.5-0.3-0.6-0.1c-0.5,1.2-1.1,2.1-1.6,2.4c-0.4,0.2-0.9,0.3-2.9,0.3c-1.9,0-2.4-0.3-2.6-0.6
		c-0.4-0.5-0.5-1.1-0.5-2.6v-8.4c0-2.5,0-2.9,1.5-3l0.6,0c0.1-0.1,0.1-0.5,0-0.6c-1.2,0-2,0.1-3,0.1c-1,0-1.8,0-3.1-0.1
		c-0.1,0.1-0.2,0.5,0,0.6l0.6,0c1.5,0.1,1.6,0.5,1.6,3V92.3L59.3,92.3z M86.4,92.3c0,2.5-0.1,2.9-1.5,3l-0.8,0.1
		c-0.1,0.1-0.1,0.5,0,0.6c1.4,0,2.2-0.1,3.3-0.1h2.2c2.1,0,4.3,0,6.5,0.1c0.3-0.7,0.9-2.5,1.1-3.4c-0.1-0.2-0.4-0.3-0.6-0.2
		c-0.6,1.3-1.3,2.1-1.7,2.3c-0.5,0.3-1.2,0.4-3.1,0.4c-2.1,0-2.6-0.3-2.9-0.6c-0.4-0.4-0.5-1.2-0.5-2.5v-3.4c0-0.6,0.1-0.6,0.8-0.6
		h1.4c0.9,0,1.5,0,1.9,0.1c0.5,0.1,0.6,0.5,0.7,0.9l0.2,0.9c0.1,0.1,0.5,0.1,0.6,0c0-0.5-0.1-1.4-0.1-2.3c0-0.9,0.1-1.9,0.1-2.4
		c-0.1-0.2-0.5-0.2-0.6,0l-0.2,1c-0.1,0.6-0.3,0.7-0.6,0.8c-0.3,0.1-1,0.1-2,0.1h-1.4c-0.7,0-0.8,0-0.8-0.7v-4.8c0-0.9,0-1,0.7-1
		h1.7c1.1,0,1.8,0,2.3,0.1c1.3,0.3,1.5,1.2,1.8,2.3c0.1,0.1,0.5,0.1,0.6,0c-0.1-1.1-0.2-2.8-0.4-3.2C94.9,80,93.5,80,92,80h-4.5
		c-1,0-1.8,0-2.8-0.1c-0.1,0.1-0.2,0.5,0,0.6l0.4,0c1.4,0.2,1.5,0.5,1.5,3V92.3L86.4,92.3z M111.8,91.8c0-2.3-1.5-3.7-3-4.6
		l-1.9-1.2c-0.9-0.6-2-1.6-2-3c0-1.1,0.5-2.7,2.9-2.7c2.3,0,3,1.6,3.3,2.7c0.1,0.1,0.5,0.1,0.6-0.1c0-1-0.2-2.4-0.4-2.9
		c-0.2,0-0.5-0.1-0.8-0.1c-0.6-0.2-1.5-0.3-2.2-0.3c-3.1,0-4.9,1.9-4.9,4.1c0,2,1.4,3.4,2.6,4.1l2.3,1.5c1.8,1.1,2,2.3,2,3.4
		c0,1.4-1,2.8-3,2.8c-2.8,0-3.8-2.4-4.1-3.6c-0.1-0.1-0.5-0.1-0.6,0.1c0,1.1,0.4,2.8,0.6,3.4c0.5,0.3,1.7,0.9,3.8,0.9
		C109.8,96.3,111.8,94.5,111.8,91.8L111.8,91.8z M125.8,81.6c0-0.8,0-0.8,0.7-0.8h1.7c1.3,0,2.2,0.2,2.8,0.6
		c0.4,0.3,0.5,1.2,0.6,1.8c0.1,0.1,0.5,0.1,0.6,0c-0.1-0.7,0.1-2.7,0.4-3.7c0-0.1-0.3-0.1-0.4-0.1c-0.4,0.6-0.6,0.7-1.9,0.7h-9.8
		c-1.1,0-1.9,0-2-0.7c-0.1-0.1-0.4,0-0.5,0c-0.2,1-0.5,2.5-0.9,3.6c0.1,0.2,0.4,0.3,0.6,0.2c0.3-0.6,0.5-1.1,1.1-1.7
		c0.6-0.6,1.9-0.6,3-0.6h1.3c0.7,0,0.7,0,0.7,0.8v10.8c0,2.5-0.1,2.9-1.5,3l-0.9,0.1c-0.2,0.1-0.1,0.5,0,0.6c1.5,0,2.4-0.1,3.4-0.1
		c1,0,1.8,0,3.2,0.1c0.1-0.1,0.2-0.5,0-0.6l-0.8-0.1c-1.4-0.1-1.4-0.5-1.4-3V81.6L125.8,81.6z M146,93.6c0.2,0.6,0.3,1,0.3,1.3
		c0,0.2-0.3,0.4-0.8,0.4l-0.7,0.1c-0.2,0.1-0.1,0.5,0,0.6c0.7,0,1.6-0.1,2.8-0.1c1.1,0,1.9,0,2.9,0.1c0.1-0.1,0.2-0.5,0-0.6
		l-0.6-0.1c-1-0.1-1.3-0.5-2-2.6l-3.3-9.7c-0.4-1.1-0.7-2.2-1.1-3.2c0-0.2-0.2-0.2-0.4-0.2c-0.3,0.3-0.7,0.7-1.3,0.9
		c0.1,0.4-0.1,0.8-0.4,1.7l-2.5,6.5c-1,2.7-1.7,4.3-2.1,5.4c-0.3,0.9-0.9,1.1-1.4,1.2l-0.8,0.1c-0.1,0.1-0.1,0.5,0,0.6
		c0.7,0,1.5-0.1,2.3-0.1c1.1,0,1.9,0,2.5,0.1c0.2-0.1,0.2-0.5,0-0.6l-0.8-0.1c-0.6,0-0.7-0.2-0.7-0.5c0-0.3,0.2-0.9,0.5-2l0.8-2.5
		c0.2-0.5,0.3-0.6,0.9-0.6h3.6c0.7,0,0.8,0.1,1,0.6L146,93.6L146,93.6z M141.7,84c0.3-0.7,0.5-1.3,0.6-1.4h0
		c0.1,0.3,0.4,0.9,0.6,1.5l1.3,3.9c0.2,0.7,0.2,0.7-0.5,0.7h-3c-0.7,0-0.7,0-0.5-0.6L141.7,84L141.7,84z M161.2,81.6
		c0-0.8,0-0.8,0.7-0.8h1.7c1.3,0,2.2,0.2,2.8,0.6c0.4,0.3,0.5,1.2,0.6,1.8c0.1,0.1,0.5,0.1,0.6,0c-0.1-0.7,0.1-2.7,0.4-3.7
		c0-0.1-0.3-0.1-0.4-0.1c-0.4,0.6-0.6,0.7-1.9,0.7h-9.8c-1.1,0-1.9,0-2-0.7c-0.1-0.1-0.4,0-0.5,0c-0.2,1-0.5,2.5-0.9,3.6
		c0.1,0.2,0.4,0.3,0.6,0.2c0.3-0.6,0.5-1.1,1.1-1.7c0.6-0.6,1.9-0.6,3-0.6h1.3c0.7,0,0.7,0,0.7,0.8v10.8c0,2.5-0.1,2.9-1.5,3
		l-0.9,0.1c-0.2,0.1-0.1,0.5,0,0.6c1.5,0,2.4-0.1,3.4-0.1s1.8,0,3.2,0.1c0.1-0.1,0.2-0.5,0-0.6l-0.8-0.1c-1.4-0.1-1.4-0.5-1.4-3
		V81.6L161.2,81.6z M175.1,92.3c0,2.5-0.1,2.9-1.5,3l-0.8,0.1c-0.1,0.1-0.1,0.5,0,0.6c1.4,0,2.2-0.1,3.3-0.1h2.2
		c2.1,0,4.3,0,6.5,0.1c0.3-0.7,0.9-2.5,1.1-3.4c-0.1-0.2-0.4-0.3-0.6-0.2c-0.6,1.3-1.3,2.1-1.7,2.3c-0.5,0.3-1.2,0.4-3.1,0.4
		c-2.1,0-2.6-0.3-2.9-0.6c-0.4-0.4-0.5-1.2-0.5-2.5v-3.4c0-0.6,0.1-0.6,0.8-0.6h1.4c0.9,0,1.5,0,1.9,0.1c0.5,0.1,0.6,0.5,0.7,0.9
		l0.2,0.9c0.1,0.1,0.5,0.1,0.6,0c0-0.5-0.1-1.4-0.1-2.3c0-0.9,0.1-1.9,0.1-2.4c-0.1-0.2-0.5-0.2-0.6,0l-0.2,1
		c-0.1,0.6-0.3,0.7-0.6,0.8c-0.3,0.1-1,0.1-2,0.1h-1.4c-0.7,0-0.8,0-0.8-0.7v-4.8c0-0.9,0-1,0.7-1h1.7c1.1,0,1.8,0,2.3,0.1
		c1.3,0.3,1.5,1.2,1.8,2.3c0.1,0.1,0.5,0.1,0.6,0c-0.1-1.1-0.2-2.8-0.4-3.2c-0.3,0.1-1.7,0.1-3.3,0.1h-4.5c-1,0-1.8,0-2.8-0.1
		c-0.1,0.1-0.2,0.5,0,0.6l0.4,0c1.4,0.2,1.5,0.5,1.5,3V92.3L175.1,92.3z M215.5,92.1c0-1.2,0-1.9,1-2l0.4,0c0.2-0.1,0.1-0.5,0-0.6
		c-0.8,0-1.6,0.1-2.6,0.1c-1.4,0-2.7,0-3.4-0.1c-0.2,0.1-0.2,0.5,0,0.6l1.1,0.1c1.5,0.2,1.6,0.3,1.6,2.3v1c0,0.8-0.1,1.2-0.2,1.4
		c-0.3,0.4-1.2,0.7-2.7,0.7c-4.8,0-7.2-3.6-7.2-8.3c0-3.6,2-6.9,6.7-6.9c2.5,0,4.3,0.8,4.9,3.4c0.1,0.1,0.6,0.1,0.7-0.1
		c-0.2-1.4-0.4-2.7-0.4-3.5c-0.3,0-1-0.1-1.5-0.2c-0.4-0.1-1.7-0.4-3.1-0.4c-3.6,0-6,1.1-7.6,2.8c-1.5,1.6-2.2,3.7-2.2,5.7
		c0,2.1,0.8,4,2.2,5.5c1.9,1.9,4.5,2.7,7.4,2.7c1.3,0,3-0.3,4.3-0.6c0.5-0.1,0.9-0.2,1.2-0.2c0.1-0.1,0.1-0.2,0-0.3
		c-0.4-0.2-0.6-0.7-0.6-1.7V92.1L215.5,92.1z M228.4,83.9c-0.7-1.5-1.3-3-1.3-4c-0.8,0.1-1.4,0.1-2,0.1c-0.6,0-1.2,0-1.9-0.1
		c-0.2,0.1-0.2,0.5-0.1,0.6l0.4,0c1.5,0.2,1.7,0.6,1.6,2.1c0,1.3-0.1,3.4-0.3,5.4c-0.1,2.4-0.3,3.7-0.4,5.3c-0.1,1.7-0.5,1.9-1.5,2
		l-0.5,0.1c-0.1,0.1-0.1,0.5,0,0.6c0.8,0,1.7-0.1,2.5-0.1c0.9,0,1.9,0,2.7,0.1c0.2-0.1,0.2-0.5,0-0.6l-0.9-0.1
		c-0.9-0.1-1.1-0.5-1.1-2.2c0-2,0.1-4.2,0.2-5.7c0.1-1.4,0.1-2.8,0.2-4.3h0c0.5,1.1,1,2.4,1.5,3.5l2.2,4.7c0.6,1.2,1.7,3.5,2.1,4.8
		c0,0.1,0.2,0.1,0.2,0.1c0.1,0,0.2,0,0.2-0.1c0.4-1.1,1.5-3.4,2.6-5.5l2.1-4.2c0.5-0.9,1.4-2.9,1.6-3.1h0l0.1,10.1
		c0,1.5,0,1.9-1.2,2l-0.7,0.1c-0.1,0.1-0.1,0.5,0,0.6c1,0,2.1-0.1,2.9-0.1c0.9,0,1.9,0,2.8,0.1c0.2-0.1,0.2-0.5,0-0.6l-0.8-0.1
		c-1.1-0.1-1.1-0.7-1.2-2c-0.2-3.5-0.2-7.9-0.3-10.5c0-1.7,0.2-2.1,1.7-2.3l0.5,0c0.1-0.1,0.1-0.5,0-0.6c-0.7,0-1.5,0.1-2.1,0.1
		c-0.5,0-1,0-1.8-0.1c0,1.1-0.7,2.4-1.8,4.6l-2.3,4.6c-0.6,1.2-1.2,2.5-1.9,3.6h0c-0.6-1.1-1.1-2.2-1.7-3.3L228.4,83.9L228.4,83.9z
		 M250.7,92.3c0,2.5,0,2.8-1.3,3l-0.4,0.1c-0.1,0.1-0.1,0.5,0,0.6c0.9,0,1.7-0.1,2.8-0.1c1,0,2.2,0.1,2.9,0.1c4.3,0,6.4-1.9,6.4-4.7
		c0-2.6-1.9-3.8-3.2-4c-0.3,0-0.5-0.1-0.5-0.4c1.4-0.7,2.5-1.6,2.5-3.3c0-1.5-0.8-2.5-1.8-3c-1.1-0.6-2.5-0.7-4-0.7
		c-2.2,0-3.9,0.1-5.2,0.2c-0.2,0.1-0.2,0.5,0,0.6l0.8,0.1c1.1,0.1,1.2,0.6,1.2,2.3V92.3L250.7,92.3z M252.6,88.4
		c0-0.5,0.1-0.6,1.4-0.6c3.8,0,4.8,2.2,4.8,4.1c0,2.4-1.6,3.4-3.8,3.4c-0.7,0-1.4-0.1-1.9-0.7c-0.5-0.5-0.5-1.8-0.5-2.6V88.4
		L252.6,88.4z M252.6,81.4c0-0.4,0.1-0.6,0.3-0.6c0.2-0.1,0.6-0.1,1.1-0.1c1.8,0,3.6,0.9,3.6,3.3c0,2.3-1.3,3-3.8,3.1
		c-1.2,0-1.3,0-1.3-0.7V81.4L252.6,81.4z M279.2,88.1c1.2,0,1.2,0,1.2,0.8v3.4c0,2.5,0,2.8-1.5,3l-0.5,0.1c-0.1,0.1-0.1,0.5,0,0.6
		c1.1,0,1.9-0.1,2.9-0.1c0.9,0,1.8,0,2.9,0.1c0.1-0.1,0.2-0.5,0-0.6l-0.6-0.1c-1.4-0.2-1.4-0.5-1.4-3v-8.7c0-2.5,0-2.9,1.4-3l0.5,0
		c0.1-0.1,0.1-0.5,0-0.6c-1.1,0-1.9,0.1-2.8,0.1c-1,0-1.8,0-2.9-0.1c-0.1,0.1-0.2,0.5,0,0.6l0.5,0c1.4,0.1,1.5,0.5,1.5,3v2.8
		c0,0.7,0,0.8-1.2,0.8h-6.9c-1.2,0-1.2,0-1.2-0.8v-2.8c0-2.5,0-2.9,1.4-3l0.5,0c0.1-0.1,0.1-0.5,0-0.6c-1,0-1.9,0.1-2.8,0.1
		c-1,0-1.9,0-3-0.1c-0.1,0.1-0.2,0.5,0,0.6l0.6,0c1.3,0.1,1.4,0.5,1.4,3v8.7c0,2.5,0,2.8-1.4,3l-0.4,0.1c-0.1,0.1-0.1,0.5,0,0.6
		c0.9,0,1.8-0.1,2.8-0.1c0.9,0,1.8,0,3.1,0.1c0.1-0.1,0.2-0.5,0-0.6l-0.7-0.1c-1.4-0.1-1.5-0.5-1.5-3v-3.4c0-0.7,0-0.8,1.2-0.8
		H279.2L279.2,88.1z"/>
	<path class="st1" d="M236.9,53.3h10.9V25c0-8.2,5.4-12.7,12.4-12.7c7.2,0,12,3.8,12,12.9v28.1h10.9V22.8c0-12.5-9-21.4-19.6-21.4
		c-6.9,0-12.4,3-15.5,7.7h-0.2V2.7h-10.9V53.3L236.9,53.3z"/>
	<path class="st2" d="M174.8,13.6c-4.9-7.1-11.9-12.2-22.7-12.2c-17.6,0-27.9,13.3-27.9,26.6c0,13.4,10.2,26.6,27.9,26.6
		c9.6,0,18.2-5.1,22.7-12.2l-9.5-5.6c-2.9,4.6-7.2,7.6-13.2,7.6c-9.5,0-16.4-7.3-16.4-16.4c0-9.1,6.9-16.4,16.4-16.4
		c6.2,0,10.2,3.1,13.2,7.6L174.8,13.6L174.8,13.6z"/>
	<path class="st1" d="M13.2,2.7H2.4v68h10.9V47.1h0.2c2.8,4.3,8.6,7.5,16.1,7.5c16.4,0,26.7-14.2,26.7-26.6c0-13-9.6-26.6-26.2-26.6
		c-6.9,0-12.7,2.7-16.6,7.5h-0.2V2.7L13.2,2.7z M44.8,28c0,9.1-7.3,16.4-16.1,16.4c-8.6,0-15.9-7.3-15.9-16.4
		c0-9.1,7.3-16.4,15.9-16.4C37.4,11.6,44.8,18.9,44.8,28L44.8,28z M104.5,53.3h10.9V2.7h-10.9v6.2h-0.2c-2.8-4.3-8.6-7.5-16.1-7.5
		C71.8,1.4,61.5,15.6,61.5,28c0,13,9.6,26.6,26.2,26.6c6.9,0,13.2-2.9,16.6-7.5h0.2V53.3L104.5,53.3z M72.9,28
		c0-9.1,7.3-16.4,16.1-16.4c8.6,0,15.9,7.3,15.9,16.4c0,9.1-7.3,16.4-15.9,16.4C80.2,44.4,72.9,37.1,72.9,28L72.9,28z"/>
	<path class="st3" d="M178.9,13.6c4.9-7.1,11.9-12.2,22.7-12.2c17.6,0,27.9,13.3,27.9,26.6c0,13.4-10.2,26.6-27.9,26.6
		c-9.6,0-18.2-5.1-22.7-12.2l9.5-5.6c2.9,4.6,7.2,7.6,13.2,7.6c9.5,0,16.4-7.3,16.4-16.4c0-9.1-6.9-16.4-16.4-16.4
		c-6.2,0-10.2,3.1-13.2,7.6L178.9,13.6L178.9,13.6z"/>
</g>
</svg>